<svg version="1.2" xmlns="http://www.w3.org/2000/svg" viewBox="0 0 92 92" width="92" height="92">
	<title>searxng-wordmark-svg</title>
	<style>
		.s0 { fill: #ffffff;stroke: #000000;paint-order:stroke fill markers;stroke-linejoin: round;stroke-width: 6 } 
	</style>
	<g id="layer1">
		<path id="path3713" class="s0" d="m34.1 74.6z"/>
		<path id="path852" fill-rule="evenodd" class="s0" d="m27.6 25q2-1 4.2-1.3 2.2-0.4 4.4 0 2.2 0.3 4.2 1.3 2 1 3.5 2.6 1.6 1.6 2.6 3.6 1 2 1.3 4.2 0.4 2.2 0 4.4-0.4 2.2-1.4 4.2"/>
		<path id="rect912" class="s0" d="m49.8 64.4l13-13.7 28.9 27.7-13 13.6z"/>
		<path id="path834" class="s0" d="m35 66.5c-16.6 0-30-13.4-30-30 0-16.6 13.4-30 30-30 16.6 0 30 13.4 30 30 0 16.6-13.4 30-30 30z"/>
	</g>
</svg>